<svg width="35" height="36" viewBox="0 0 35 36" fill="none" xmlns="http://www.w3.org/2000/svg">
<path d="M31.2675 16.5749L17.8654 30.3599C16.2236 32.0486 13.9967 32.9974 11.6748 32.9974C9.35285 32.9974 7.12602 32.0486 5.48416 30.3599C3.84231 28.6711 2.91992 26.3807 2.91992 23.9924C2.91992 21.6041 3.84231 19.3136 5.48416 17.6249L18.8862 3.83988C19.9808 2.71404 21.4654 2.08154 23.0133 2.08154C24.5613 2.08154 26.0458 2.71404 27.1404 3.83988C28.235 4.96572 28.8499 6.4927 28.8499 8.08488C28.8499 9.67706 28.235 11.204 27.1404 12.3299L13.7237 26.1149C13.1765 26.6778 12.4342 26.994 11.6602 26.994C10.8862 26.994 10.1439 26.6778 9.59666 26.1149C9.04938 25.552 8.74192 24.7885 8.74192 23.9924C8.74192 23.1963 9.04938 22.4328 9.59666 21.8699L21.9779 9.14988" stroke="#1E1E1E" stroke-width="4" stroke-linecap="round" stroke-linejoin="round"/>
</svg>
